<?xml version="1.0" encoding="iso-8859-1"?>
<!-- Generator: Adobe Illustrator 16.0.0, SVG Export Plug-In . SVG Version: 6.00 Build 0)  -->
<!DOCTYPE svg PUBLIC "-//W3C//DTD SVG 1.1//EN" "http://www.w3.org/Graphics/SVG/1.1/DTD/svg11.dtd">
<svg version="1.1" fill="#171ee8"id="Capa_1" xmlns="http://www.w3.org/2000/svg" xmlns:xlink="http://www.w3.org/1999/xlink" x="0px" y="0px"
	 width="512px" height="512px" viewBox="0 0 512 512" style="enable-background:new 0 0 512 512;" xml:space="preserve">
<g>
	<path d="M256,0C114.609,0,0,114.609,0,256c0,141.391,114.609,256,256,256c141.391,0,256-114.609,256-256
		C512,114.609,397.391,0,256,0z M256,472c-119.297,0-216-96.703-216-216S136.703,40,256,40s216,96.703,216,216S375.297,472,256,472z
		"/>
	<g>
		<path d="M256,187.078c-38,0-68.922,30.922-68.922,68.922S218,324.922,256,324.922S324.922,294,324.922,256
			S294,187.078,256,187.078z M256,305.234c-27.188,0-49.234-22.047-49.234-49.234c0-27.187,22.047-49.234,49.234-49.234
			c27.188,0,49.234,22.047,49.234,49.234C305.234,283.188,283.188,305.234,256,305.234z"/>
		<g>
			<path d="M256,128c-5.438,0-9.844,4.406-9.844,9.844v19.688c0,5.438,4.406,9.844,9.844,9.844c5.438,0,9.844-4.406,9.844-9.844
				v-19.688C265.844,132.406,261.438,128,256,128z"/>
			<path d="M256,344.609c-5.438,0-9.844,4.422-9.844,9.858v19.688c0,5.438,4.406,9.844,9.844,9.844c5.438,0,9.844-4.406,9.844-9.844
				v-19.688C265.844,349.031,261.438,344.609,256,344.609z"/>
		</g>
		<g>
			<path d="M346.5,165.484c-3.844-3.844-10.078-3.844-13.922,0l-13.922,13.922c-3.844,3.844-3.844,10.078,0,13.938
				c3.844,3.844,10.078,3.844,13.922,0l13.922-13.938C350.344,175.562,350.344,169.344,346.5,165.484z"/>
			<path d="M193.344,318.672c-3.844-3.844-10.078-3.859-13.922,0L165.5,332.594c-3.844,3.844-3.844,10.078,0,13.922
				s10.078,3.844,13.922,0l13.922-13.922C197.188,328.734,197.188,322.516,193.344,318.672z"/>
		</g>
		<g>
			<path d="M128,256c0,5.438,4.406,9.844,9.844,9.844h19.688c5.438,0,9.844-4.406,9.844-9.844c0-5.438-4.406-9.844-9.844-9.844
				h-19.688C132.406,246.156,128,250.562,128,256z"/>
			<path d="M344.609,256c0,5.438,4.422,9.844,9.858,9.844h19.688c5.438,0,9.844-4.406,9.844-9.844c0-5.438-4.406-9.844-9.844-9.844
				h-19.688C349.031,246.156,344.609,250.562,344.609,256z"/>
		</g>
		<g>
			<path d="M165.484,165.484c-3.844,3.859-3.844,10.078,0,13.922l13.922,13.938c3.844,3.844,10.078,3.844,13.938,0
				c3.844-3.859,3.844-10.094,0-13.938l-13.938-13.922C175.562,161.641,169.344,161.641,165.484,165.484z"/>
			<path d="M318.672,318.656c-3.844,3.844-3.859,10.078,0,13.922l13.922,13.922c3.844,3.844,10.078,3.844,13.922,0
				c3.845-3.844,3.845-10.078,0-13.922l-13.922-13.922C328.734,314.812,322.516,314.812,318.672,318.656z"/>
		</g>
	</g>
</g>
<g>
</g>
<g>
</g>
<g>
</g>
<g>
</g>
<g>
</g>
<g>
</g>
<g>
</g>
<g>
</g>
<g>
</g>
<g>
</g>
<g>
</g>
<g>
</g>
<g>
</g>
<g>
</g>
<g>
</g>
</svg>
